<svg width="103" height="103" viewBox="0 0 103 103" fill="none" xmlns="http://www.w3.org/2000/svg">
<g filter="url(#filter0_d)">
<circle cx="51.5" cy="47.5" r="25.5" transform="rotate(-180 51.5 47.5)" fill="white"/>
</g>
<path d="M38.2929 47.2929C37.9024 47.6834 37.9024 48.3166 38.2929 48.7071L44.6569 55.0711C45.0474 55.4616 45.6805 55.4616 46.0711 55.0711C46.4616 54.6805 46.4616 54.0474 46.0711 53.6569L40.4142 48L46.0711 42.3431C46.4616 41.9526 46.4616 41.3195 46.0711 40.9289C45.6805 40.5384 45.0474 40.5384 44.6569 40.9289L38.2929 47.2929ZM64 47L39 47L39 49L64 49L64 47Z" fill="black"/>
<defs>
<filter id="filter0_d" x="0" y="-1.90735e-06" width="103" height="103" filterUnits="userSpaceOnUse" color-interpolation-filters="sRGB">
<feFlood flood-opacity="0" result="BackgroundImageFix"/>
<feColorMatrix in="SourceAlpha" type="matrix" values="0 0 0 0 0 0 0 0 0 0 0 0 0 0 0 0 0 0 127 0"/>
<feOffset dy="4"/>
<feGaussianBlur stdDeviation="13"/>
<feColorMatrix type="matrix" values="0 0 0 0 0 0 0 0 0 0 0 0 0 0 0 0 0 0 0.15 0"/>
<feBlend mode="normal" in2="BackgroundImageFix" result="effect1_dropShadow"/>
<feBlend mode="normal" in="SourceGraphic" in2="effect1_dropShadow" result="shape"/>
</filter>
</defs>
</svg>
